<svg width="18" height="16" viewBox="0 0 18 16" fill="none" xmlns="http://www.w3.org/2000/svg">
<path d="M13.3506 12.7929H4.31863C2.12205 12.7929 0.334961 11.2098 0.334961 9.26384V4.43934C0.334961 2.49308 2.12235 0.909668 4.31933 0.909668H10.8935C11.2603 0.909668 11.5576 1.17304 11.5576 1.49795C11.5576 1.82285 11.2603 2.08623 10.8935 2.08623H4.31933C2.85468 2.08623 1.66308 3.14183 1.66308 4.43934V9.26384C1.66308 10.561 2.85438 11.6163 4.31863 11.6163H13.3506C14.8152 11.6163 16.0068 10.5607 16.0068 9.26323V6.61597C16.0068 6.29107 16.3041 6.02769 16.6709 6.02769C17.0376 6.02769 17.3349 6.29107 17.3349 6.61597V9.26323C17.3349 11.2095 15.5475 12.7929 13.3506 12.7929ZM12.6865 14.5577C12.6865 14.2328 12.3892 13.9695 12.0224 13.9695H5.64745C5.28069 13.9695 4.98339 14.2328 4.98339 14.5577C4.98339 14.8826 5.28069 15.146 5.64745 15.146H12.0224C12.3892 15.146 12.6865 14.8826 12.6865 14.5577Z" fill="black"/>
<path d="M16.6709 4.85114C16.3042 4.85114 16.0069 4.58776 16.0069 4.26286V2.70912C16.0069 2.36566 15.6914 2.08623 15.3038 2.08623H13.5498C13.1831 2.08623 12.8858 1.82285 12.8858 1.49795C12.8858 1.17304 13.1831 0.909668 13.5498 0.909668H15.3038C16.4238 0.909668 17.335 1.71687 17.335 2.70912V4.26286C17.335 4.58776 17.0377 4.85114 16.6709 4.85114ZM15.0259 3.90409C15.2791 3.66914 15.2695 3.29676 15.0042 3.07239C14.739 2.84802 14.3186 2.85658 14.0653 3.09154C12.4537 4.58662 10.3132 5.41 8.03812 5.41H7.64563C7.27887 5.41 6.98157 5.67337 6.98157 5.99828C6.98157 6.32319 7.27887 6.58656 7.64563 6.58656H8.03812C10.6796 6.58656 13.1612 5.6339 15.0259 3.90409Z" fill="#1A6291"/>
</svg>
