<svg width="19" height="21" viewBox="0 0 19 21" fill="none" xmlns="http://www.w3.org/2000/svg">
<path d="M6.7168 20.0143H4.45312C1.99767 20.0143 0 17.9829 0 15.486V9.29735C0 6.80044 1.99767 4.76904 4.45312 4.76904H14.5469C17.0023 4.76904 19 6.80044 19 9.29735V11.5615C19 11.9783 18.6677 12.3162 18.2578 12.3162C17.8479 12.3162 17.5156 11.9783 17.5156 11.5615V9.29735C17.5156 7.63274 16.1838 6.27848 14.5469 6.27848H4.45312C2.81616 6.27848 1.48438 7.63274 1.48438 9.29735V15.486C1.48438 17.1506 2.81616 18.5049 4.45312 18.5049H6.7168C7.12671 18.5049 7.45898 18.8428 7.45898 19.2596C7.45898 19.6764 7.12671 20.0143 6.7168 20.0143ZM19 17.7124V15.7191C19 14.4461 17.9816 13.4106 16.7298 13.4106H14.7695C14.3596 13.4106 14.0273 13.7484 14.0273 14.1653C14.0273 14.5821 14.3596 14.92 14.7695 14.92H16.7298C17.1631 14.92 17.5156 15.2785 17.5156 15.7191V17.7124C17.5156 18.1293 17.8479 18.4672 18.2578 18.4672C18.6677 18.4672 19 18.1293 19 17.7124ZM16.4192 17.2522C16.7023 16.9507 16.6915 16.473 16.395 16.1851C16.0986 15.8973 15.6288 15.9083 15.3457 16.2097C13.9759 17.6683 12.0528 18.5049 10.0694 18.5049H9.72266C9.31275 18.5049 8.98047 18.8428 8.98047 19.2596C8.98047 19.6764 9.31275 20.0143 9.72266 20.0143H10.0694C12.4564 20.0143 14.7708 19.0076 16.4192 17.2522ZM4.86133 8.31621C4.34896 8.31621 3.93359 8.73859 3.93359 9.25961C3.93359 9.78063 4.34896 10.203 4.86133 10.203C5.3737 10.203 5.78906 9.78063 5.78906 9.25961C5.78906 8.73859 5.3737 8.31621 4.86133 8.31621ZM8.05273 8.31621C7.54037 8.31621 7.125 8.73859 7.125 9.25961C7.125 9.78063 7.54037 10.203 8.05273 10.203C8.5651 10.203 8.98047 9.78063 8.98047 9.25961C8.98047 8.73859 8.5651 8.31621 8.05273 8.31621ZM11.2441 8.31621C10.7318 8.31621 10.3164 8.73859 10.3164 9.25961C10.3164 9.78063 10.7318 10.203 11.2441 10.203C11.7565 10.203 12.1719 9.78063 12.1719 9.25961C12.1719 8.73859 11.7565 8.31621 11.2441 8.31621ZM4.86133 11.5615C4.34896 11.5615 3.93359 11.9839 3.93359 12.5049C3.93359 13.0259 4.34896 13.4483 4.86133 13.4483C5.3737 13.4483 5.78906 13.0259 5.78906 12.5049C5.78906 11.9839 5.3737 11.5615 4.86133 11.5615ZM4.86133 14.8068C4.34896 14.8068 3.93359 15.2292 3.93359 15.7502C3.93359 16.2712 4.34896 16.6936 4.86133 16.6936C5.3737 16.6936 5.78906 16.2712 5.78906 15.7502C5.78906 15.2292 5.3737 14.8068 4.86133 14.8068ZM8.05273 11.5615C7.54037 11.5615 7.125 11.9839 7.125 12.5049C7.125 13.0259 7.54037 13.4483 8.05273 13.4483C8.5651 13.4483 8.98047 13.0259 8.98047 12.5049C8.98047 11.9839 8.5651 11.5615 8.05273 11.5615ZM8.05273 14.8068C7.54037 14.8068 7.125 15.2292 7.125 15.7502C7.125 16.2712 7.54037 16.6936 8.05273 16.6936C8.5651 16.6936 8.98047 16.2712 8.98047 15.7502C8.98047 15.2292 8.5651 14.8068 8.05273 14.8068ZM11.2441 11.5615C10.7318 11.5615 10.3164 11.9839 10.3164 12.5049C10.3164 13.0259 10.7318 13.4483 11.2441 13.4483C11.7565 13.4483 12.1719 13.0259 12.1719 12.5049C12.1719 11.9839 11.7565 11.5615 11.2441 11.5615Z" fill="black"/>
<path d="M6.75391 3.71223C6.344 3.71223 6.01172 3.37434 6.01172 2.95751C6.01172 2.54136 5.67877 2.20279 5.26953 2.20279C4.86029 2.20279 4.52734 2.54136 4.52734 2.95751C4.52734 3.37434 4.19507 3.71223 3.78516 3.71223C3.37525 3.71223 3.04297 3.37434 3.04297 2.95751C3.04297 1.70906 4.0418 0.693359 5.26953 0.693359C6.49726 0.693359 7.49609 1.70906 7.49609 2.95751C7.49609 3.37434 7.16382 3.71223 6.75391 3.71223ZM16.0312 2.95751C16.0312 1.70906 15.0324 0.693359 13.8047 0.693359C12.577 0.693359 11.5781 1.70906 11.5781 2.95751C11.5781 3.37434 11.9104 3.71223 12.3203 3.71223C12.7302 3.71223 13.0625 3.37434 13.0625 2.95751C13.0625 2.54136 13.3954 2.20279 13.8047 2.20279C14.2139 2.20279 14.5469 2.54136 14.5469 2.95751C14.5469 3.37434 14.8792 3.71223 15.2891 3.71223C15.699 3.71223 16.0312 3.37434 16.0312 2.95751ZM14.4355 8.316C13.9232 8.316 13.5078 8.73838 13.5078 9.2594C13.5078 9.78042 13.9232 10.2028 14.4355 10.2028C14.9479 10.2028 15.3633 9.78042 15.3633 9.2594C15.3633 8.73838 14.9479 8.316 14.4355 8.316Z" fill="#1A6291"/>
</svg>
