<svg width="16" height="15" viewBox="0 0 16 15" fill="none" xmlns="http://www.w3.org/2000/svg">
<path d="M11.9932 14.8408H4.02441C2.0859 14.8408 0.508789 13.344 0.508789 11.5042V6.80509C0.508789 4.96526 2.0859 3.46844 4.02441 3.46844H6.36816C6.69178 3.46844 6.9541 3.71741 6.9541 4.02455C6.9541 4.33169 6.69178 4.58066 6.36816 4.58066H4.02441C2.73207 4.58066 1.68066 5.57854 1.68066 6.80509V11.5042C1.68066 12.7307 2.73207 13.7286 4.02441 13.7286H11.9932C13.2855 13.7286 14.3369 12.7307 14.3369 11.5042V8.30658C14.3369 7.99944 14.5992 7.75047 14.9229 7.75047C15.2465 7.75047 15.5088 7.99944 15.5088 8.30658V11.5042C15.5088 13.344 13.9317 14.8408 11.9932 14.8408ZM15.5088 4.10797C15.5088 2.17613 13.8528 0.604492 11.8174 0.604492C9.78192 0.604492 8.12598 2.17613 8.12598 4.10797C8.12598 6.0398 9.78192 7.61144 11.8174 7.61144C13.8528 7.61144 15.5088 6.0398 15.5088 4.10797ZM14.3369 4.10797C14.3369 5.4265 13.2066 6.49923 11.8174 6.49923C10.4281 6.49923 9.29785 5.4265 9.29785 4.10797C9.29785 2.78944 10.4281 1.71671 11.8174 1.71671C13.2066 1.71671 14.3369 2.78944 14.3369 4.10797Z" fill="black"/>
<path d="M8.00861 10.946C7.25642 10.946 6.50434 10.7188 5.87677 10.2645L3.08384 8.24879C2.82626 8.06288 2.77622 7.71398 2.9721 7.46952C3.16801 7.22502 3.5356 7.17753 3.79317 7.36347L6.58678 9.37969C7.42432 9.98599 8.59332 9.98596 9.43019 9.38019L10.4067 8.67126C10.6638 8.48469 11.0316 8.53118 11.2281 8.77512C11.4247 9.01905 11.3758 9.36809 11.1187 9.55467L10.1415 10.264C9.51345 10.7187 8.76099 10.946 8.00861 10.946ZM12.4034 4.96998V3.24605C12.4034 2.93891 12.141 2.68994 11.8174 2.68994H11.2315C10.9079 2.68994 10.6455 2.93891 10.6455 3.24605C10.6455 3.55319 10.9079 3.80216 11.2315 3.80216V4.96998C11.2315 5.27712 11.4938 5.52609 11.8174 5.52609C12.141 5.52609 12.4034 5.27712 12.4034 4.96998Z" fill="#1A6291"/>
</svg>
