<svg width="17" height="18" viewBox="0 0 17 18" fill="none" xmlns="http://www.w3.org/2000/svg">
<path d="M13.054 12.0186C11.5893 12.0186 10.3977 10.8069 10.3977 9.31754C10.3977 7.82815 11.5893 6.61644 13.054 6.61644C14.5186 6.61644 15.7102 7.82815 15.7102 9.31754C15.7102 10.8069 14.5186 12.0186 13.054 12.0186ZM13.054 7.88755C12.2785 7.88755 11.6477 8.52904 11.6477 9.31754C11.6477 10.106 12.2785 10.7475 13.054 10.7475C13.8294 10.7475 14.4602 10.106 14.4602 9.31754C14.4602 8.52904 13.8294 7.88755 13.054 7.88755ZM8.08521 16.531C8.08521 16.18 7.80539 15.8955 7.46021 15.8955H4.58455C3.20642 15.8955 2.08521 14.7553 2.08521 13.354V4.70912C2.08521 3.30773 3.20642 2.16759 4.58455 2.16759H10.3365C11.7146 2.16759 12.8358 3.30773 12.8358 4.70912C12.8358 5.06014 13.1156 5.34468 13.4608 5.34468C13.806 5.34468 14.0858 5.06014 14.0858 4.70912C14.0859 2.60685 12.4039 0.896484 10.3359 0.896484H4.58455C2.51717 0.896484 0.835205 2.60685 0.835205 4.70912V13.3539C0.835205 15.4562 2.51717 17.1666 4.58455 17.1666H7.46021C7.80539 17.1666 8.08521 16.8821 8.08521 16.531ZM9.11646 8.10999C9.11646 7.75898 8.83664 7.47444 8.49146 7.47444H5.42896C5.08377 7.47444 4.80396 7.75898 4.80396 8.10999C4.80396 8.461 5.08377 8.74554 5.42896 8.74554H8.49146C8.83664 8.74554 9.11646 8.461 9.11646 8.10999ZM9.11646 12.972C9.11646 12.6209 8.83664 12.3364 8.49146 12.3364H5.42896C5.08377 12.3364 4.80396 12.6209 4.80396 12.972C4.80396 13.323 5.08377 13.6075 5.42896 13.6075H8.49146C8.83664 13.6075 9.11646 13.323 9.11646 12.972ZM9.11646 10.5251C9.11646 10.1741 8.83664 9.88953 8.49146 9.88953H5.42896C5.08377 9.88953 4.80396 10.1741 4.80396 10.5251C4.80396 10.8761 5.08377 11.1606 5.42896 11.1606H8.49146C8.83664 11.1606 9.11646 10.8761 9.11646 10.5251Z" fill="black"/>
<path d="M16.2102 17.1664C15.865 17.1664 15.5852 16.8818 15.5852 16.5308C15.5852 15.2692 14.5825 14.2428 13.35 14.2428H12.8204C11.5879 14.2428 10.5852 15.2692 10.5852 16.5308C10.5852 16.8818 10.3054 17.1664 9.96021 17.1664C9.61502 17.1664 9.33521 16.8818 9.33521 16.5308C9.33521 14.5683 10.8986 12.9717 12.8204 12.9717H13.35C15.2718 12.9717 16.8352 14.5683 16.8352 16.5308C16.8352 16.8818 16.5554 17.1664 16.2102 17.1664ZM10.3665 5.66289C10.3665 5.31188 10.0866 5.02734 9.74146 5.02734H5.42896C5.08377 5.02734 4.80396 5.31188 4.80396 5.66289C4.80396 6.01391 5.08377 6.29845 5.42896 6.29845H9.74146C10.0866 6.29845 10.3665 6.01391 10.3665 5.66289Z" fill="#1A6291"/>
</svg>
