<svg width="20" height="21" viewBox="0 0 20 21" fill="none" xmlns="http://www.w3.org/2000/svg">
<path d="M14.8821 20.0893H4.78833C2.33288 20.0893 0.335205 18.0579 0.335205 15.561V5.29686C0.335205 2.79995 2.33288 0.768555 4.78833 0.768555H14.8821C17.3375 0.768555 19.3352 2.79995 19.3352 5.29686V15.561C19.3352 18.0579 17.3375 20.0893 14.8821 20.0893ZM4.78833 2.27799C3.15136 2.27799 1.81958 3.63225 1.81958 5.29686V15.561C1.81958 17.2256 3.15136 18.5799 4.78833 18.5799H14.8821C16.519 18.5799 17.8508 17.2256 17.8508 15.561V5.29686C17.8508 3.63225 16.519 2.27799 14.8821 2.27799H4.78833ZM8.16528 4.57988C8.16528 4.16305 7.83301 3.82516 7.4231 3.82516H4.30591C3.896 3.82516 3.56372 4.16305 3.56372 4.57988C3.56372 4.99671 3.896 5.33459 4.30591 5.33459H7.4231C7.83301 5.33459 8.16528 4.99671 8.16528 4.57988ZM14.9563 13.3723C14.9563 12.9555 14.624 12.6176 14.2141 12.6176H8.01685C7.60694 12.6176 7.27466 12.9555 7.27466 13.3723C7.27466 13.7892 7.60694 14.127 8.01685 14.127H14.2141C14.624 14.127 14.9563 13.7892 14.9563 13.3723ZM15.9583 16.3157C15.9583 15.8989 15.626 15.561 15.2161 15.561H13.5833C13.1733 15.561 12.8411 15.8989 12.8411 16.3157C12.8411 16.7326 13.1733 17.0704 13.5833 17.0704H15.2161C15.626 17.0704 15.9583 16.7326 15.9583 16.3157Z" fill="black"/>
<path d="M15.3274 11.1836H10.095C9.68506 11.1836 9.35278 10.8458 9.35278 10.4289C9.35278 10.0121 9.68506 9.67422 10.095 9.67422H15.3274C15.7373 9.67422 16.0696 10.0121 16.0696 10.4289C16.0696 10.8458 15.7373 11.1836 15.3274 11.1836ZM13.4719 7.52327C13.4719 7.10644 13.1396 6.76855 12.7297 6.76855H5.79028C5.38037 6.76855 5.0481 7.10644 5.0481 7.52327C5.0481 7.9401 5.38037 8.27799 5.79028 8.27799H12.7297C13.1396 8.27799 13.4719 7.9401 13.4719 7.52327Z" fill="#1A6291"/>
</svg>
