<svg width="20" height="21" viewBox="0 0 20 21" fill="none" xmlns="http://www.w3.org/2000/svg">
<path d="M14.8821 20.0854H4.78833C2.33288 20.0854 0.335205 18.054 0.335205 15.5571V5.29295C0.335205 2.79604 2.33288 0.764648 4.78833 0.764648H14.8821C17.3375 0.764648 19.3352 2.79604 19.3352 5.29295V15.5571C19.3352 18.054 17.3375 20.0854 14.8821 20.0854ZM4.78833 2.27408C3.15136 2.27408 1.81958 3.62835 1.81958 5.29295V15.5571C1.81958 17.2217 3.15136 18.576 4.78833 18.576H14.8821C16.519 18.576 17.8508 17.2217 17.8508 15.5571V5.29295C17.8508 3.62835 16.519 2.27408 14.8821 2.27408H4.78833ZM8.16528 4.57597C8.16528 4.15914 7.83301 3.82125 7.4231 3.82125H4.30591C3.896 3.82125 3.56372 4.15914 3.56372 4.57597C3.56372 4.9928 3.896 5.33069 4.30591 5.33069H7.4231C7.83301 5.33069 8.16528 4.9928 8.16528 4.57597ZM14.9563 13.3684C14.9563 12.9516 14.624 12.6137 14.2141 12.6137H8.01685C7.60694 12.6137 7.27466 12.9516 7.27466 13.3684C7.27466 13.7853 7.60694 14.1231 8.01685 14.1231H14.2141C14.624 14.1231 14.9563 13.7853 14.9563 13.3684ZM15.9583 16.3118C15.9583 15.895 15.626 15.5571 15.2161 15.5571H13.5833C13.1733 15.5571 12.8411 15.895 12.8411 16.3118C12.8411 16.7286 13.1733 17.0665 13.5833 17.0665H15.2161C15.626 17.0665 15.9583 16.7286 15.9583 16.3118Z" fill="black"/>
</svg>
