<svg width="15" height="15" viewBox="0 0 15 15" fill="none" xmlns="http://www.w3.org/2000/svg">
<path d="M11.4844 14.8408H3.51562C1.57711 14.8408 0 13.344 0 11.5042V6.80509C0 4.96526 1.57711 3.46844 3.51562 3.46844H5.85938C6.18299 3.46844 6.44531 3.71741 6.44531 4.02455C6.44531 4.33169 6.18299 4.58066 5.85938 4.58066H3.51562C2.22328 4.58066 1.17188 5.57854 1.17188 6.80509V11.5042C1.17188 12.7307 2.22328 13.7286 3.51562 13.7286H11.4844C12.7767 13.7286 13.8281 12.7307 13.8281 11.5042V8.30658C13.8281 7.99944 14.0904 7.75047 14.4141 7.75047C14.7377 7.75047 15 7.99944 15 8.30658V11.5042C15 13.344 13.4229 14.8408 11.4844 14.8408ZM15 4.10797C15 2.17613 13.3441 0.604492 11.3086 0.604492C9.27314 0.604492 7.61719 2.17613 7.61719 4.10797C7.61719 6.0398 9.27314 7.61144 11.3086 7.61144C13.3441 7.61144 15 6.0398 15 4.10797ZM13.8281 4.10797C13.8281 5.4265 12.6979 6.49923 11.3086 6.49923C9.91934 6.49923 8.78906 5.4265 8.78906 4.10797C8.78906 2.78944 9.91934 1.71671 11.3086 1.71671C12.6979 1.71671 13.8281 2.78944 13.8281 4.10797Z" fill="black"/>
<path d="M7.49983 10.946C6.74763 10.946 5.99555 10.7188 5.36798 10.2645L2.57505 8.24879C2.31747 8.06288 2.26743 7.71398 2.46331 7.46952C2.65922 7.22502 3.02681 7.17753 3.28439 7.36347L6.07799 9.37969C6.91553 9.98599 8.08453 9.98596 8.9214 9.38019L9.89795 8.67126C10.155 8.48469 10.5228 8.53118 10.7193 8.77512C10.916 9.01905 10.867 9.36809 10.6099 9.55467L9.63273 10.264C9.00466 10.7187 8.2522 10.946 7.49983 10.946ZM11.8946 4.96998V3.24605C11.8946 2.93891 11.6322 2.68994 11.3086 2.68994H10.7227C10.3991 2.68994 10.1368 2.93891 10.1368 3.24605C10.1368 3.55319 10.3991 3.80216 10.7227 3.80216V4.96998C10.7227 5.27712 10.985 5.52609 11.3086 5.52609C11.6322 5.52609 11.8946 5.27712 11.8946 4.96998Z" fill="#1A6291"/>
</svg>
